<?xml version="1.0" encoding="UTF-8" standalone="no"?><svg xmlns="http://www.w3.org/2000/svg" xmlns:xlink="http://www.w3.org/1999/xlink" contentScriptType="application/ecmascript" contentStyleType="text/css" height="271px" preserveAspectRatio="none" style="width:783px;height:271px;" version="1.1" viewBox="0 0 783 271" width="783px" zoomAndPan="magnify"><defs><filter height="300%" id="f4ji81m" width="300%" x="-1" y="-1"><feGaussianBlur result="blurOut" stdDeviation="2.0"/><feColorMatrix in="blurOut" result="blurOut2" type="matrix" values="0 0 0 0 0 0 0 0 0 0 0 0 0 0 0 0 0 0 .4 0"/><feOffset dx="4.0" dy="4.0" in="blurOut2" result="blurOut3"/><feBlend in="SourceGraphic" in2="blurOut3" mode="normal"/></filter></defs><g><line style="stroke: #A80036; stroke-width: 1.0; stroke-dasharray: 5.0,5.0;" x1="99" x2="99" y1="38.2969" y2="233.0938"/><line style="stroke: #A80036; stroke-width: 1.0; stroke-dasharray: 5.0,5.0;" x1="234" x2="234" y1="38.2969" y2="233.0938"/><line style="stroke: #A80036; stroke-width: 1.0; stroke-dasharray: 5.0,5.0;" x1="343" x2="343" y1="38.2969" y2="233.0938"/><line style="stroke: #A80036; stroke-width: 1.0; stroke-dasharray: 5.0,5.0;" x1="474" x2="474" y1="38.2969" y2="233.0938"/><line style="stroke: #A80036; stroke-width: 1.0; stroke-dasharray: 5.0,5.0;" x1="600" x2="600" y1="38.2969" y2="233.0938"/><line style="stroke: #A80036; stroke-width: 1.0; stroke-dasharray: 5.0,5.0;" x1="725" x2="725" y1="38.2969" y2="233.0938"/><rect fill="#FEFECE" filter="url(#f4ji81m)" height="30.2969" style="stroke: #A80036; stroke-width: 1.5;" width="179" x="8" y="3"/><text fill="#000000" font-family="sans-serif" font-size="14" lengthAdjust="spacingAndGlyphs" textLength="165" x="15" y="22.9951">ReceiveClientMessages</text><rect fill="#FEFECE" filter="url(#f4ji81m)" height="30.2969" style="stroke: #A80036; stroke-width: 1.5;" width="179" x="8" y="232.0938"/><text fill="#000000" font-family="sans-serif" font-size="14" lengthAdjust="spacingAndGlyphs" textLength="165" x="15" y="252.0889">ReceiveClientMessages</text><rect fill="#FEFECE" filter="url(#f4ji81m)" height="30.2969" style="stroke: #A80036; stroke-width: 1.5;" width="62" x="201" y="3"/><text fill="#000000" font-family="sans-serif" font-size="14" lengthAdjust="spacingAndGlyphs" textLength="48" x="208" y="22.9951">Socket</text><rect fill="#FEFECE" filter="url(#f4ji81m)" height="30.2969" style="stroke: #A80036; stroke-width: 1.5;" width="62" x="201" y="232.0938"/><text fill="#000000" font-family="sans-serif" font-size="14" lengthAdjust="spacingAndGlyphs" textLength="48" x="208" y="252.0889">Socket</text><rect fill="#FEFECE" filter="url(#f4ji81m)" height="30.2969" style="stroke: #A80036; stroke-width: 1.5;" width="129" x="277" y="3"/><text fill="#000000" font-family="sans-serif" font-size="14" lengthAdjust="spacingAndGlyphs" textLength="115" x="284" y="22.9951">ProtectedQueue</text><rect fill="#FEFECE" filter="url(#f4ji81m)" height="30.2969" style="stroke: #A80036; stroke-width: 1.5;" width="129" x="277" y="232.0938"/><text fill="#000000" font-family="sans-serif" font-size="14" lengthAdjust="spacingAndGlyphs" textLength="115" x="284" y="252.0889">ProtectedQueue</text><rect fill="#FEFECE" filter="url(#f4ji81m)" height="30.2969" style="stroke: #A80036; stroke-width: 1.5;" width="104" x="420" y="3"/><text fill="#000000" font-family="sans-serif" font-size="14" lengthAdjust="spacingAndGlyphs" textLength="90" x="427" y="22.9951">ThreadGame</text><rect fill="#FEFECE" filter="url(#f4ji81m)" height="30.2969" style="stroke: #A80036; stroke-width: 1.5;" width="104" x="420" y="232.0938"/><text fill="#000000" font-family="sans-serif" font-size="14" lengthAdjust="spacingAndGlyphs" textLength="90" x="427" y="252.0889">ThreadGame</text><rect fill="#FEFECE" filter="url(#f4ji81m)" height="30.2969" style="stroke: #A80036; stroke-width: 1.5;" width="120" x="538" y="3"/><text fill="#000000" font-family="sans-serif" font-size="14" lengthAdjust="spacingAndGlyphs" textLength="106" x="545" y="22.9951">BlockingQueue</text><rect fill="#FEFECE" filter="url(#f4ji81m)" height="30.2969" style="stroke: #A80036; stroke-width: 1.5;" width="120" x="538" y="232.0938"/><text fill="#000000" font-family="sans-serif" font-size="14" lengthAdjust="spacingAndGlyphs" textLength="106" x="545" y="252.0889">BlockingQueue</text><rect fill="#FEFECE" filter="url(#f4ji81m)" height="30.2969" style="stroke: #A80036; stroke-width: 1.5;" width="102" x="672" y="3"/><text fill="#000000" font-family="sans-serif" font-size="14" lengthAdjust="spacingAndGlyphs" textLength="88" x="679" y="22.9951">ThreadClient</text><rect fill="#FEFECE" filter="url(#f4ji81m)" height="30.2969" style="stroke: #A80036; stroke-width: 1.5;" width="102" x="672" y="232.0938"/><text fill="#000000" font-family="sans-serif" font-size="14" lengthAdjust="spacingAndGlyphs" textLength="88" x="679" y="252.0889">ThreadClient</text><polygon fill="#A80036" points="222,65.2969,232,69.2969,222,73.2969,226,69.2969" style="stroke: #A80036; stroke-width: 1.0;"/><line style="stroke: #A80036; stroke-width: 1.0;" x1="99.5" x2="228" y1="69.2969" y2="69.2969"/><text fill="#000000" font-family="sans-serif" font-size="13" lengthAdjust="spacingAndGlyphs" textLength="105" x="106.5" y="64.3638">socket_receive()</text><polygon fill="#A80036" points="331.5,94.4297,341.5,98.4297,331.5,102.4297,335.5,98.4297" style="stroke: #A80036; stroke-width: 1.0;"/><line style="stroke: #A80036; stroke-width: 1.0;" x1="99.5" x2="337.5" y1="98.4297" y2="98.4297"/><text fill="#000000" font-family="sans-serif" font-size="13" lengthAdjust="spacingAndGlyphs" textLength="41" x="106.5" y="93.4966">push()</text><polygon fill="#A80036" points="354.5,123.5625,344.5,127.5625,354.5,131.5625,350.5,127.5625" style="stroke: #A80036; stroke-width: 1.0;"/><line style="stroke: #A80036; stroke-width: 1.0;" x1="348.5" x2="473" y1="127.5625" y2="127.5625"/><text fill="#000000" font-family="sans-serif" font-size="13" lengthAdjust="spacingAndGlyphs" textLength="49" x="360.5" y="122.6294">popAll()</text><polygon fill="#A80036" points="588,152.6953,598,156.6953,588,160.6953,592,156.6953" style="stroke: #A80036; stroke-width: 1.0;"/><line style="stroke: #A80036; stroke-width: 1.0;" x1="474" x2="594" y1="156.6953" y2="156.6953"/><text fill="#000000" font-family="sans-serif" font-size="13" lengthAdjust="spacingAndGlyphs" textLength="41" x="481" y="151.7622">push()</text><polygon fill="#A80036" points="611,181.8281,601,185.8281,611,189.8281,607,185.8281" style="stroke: #A80036; stroke-width: 1.0;"/><line style="stroke: #A80036; stroke-width: 1.0;" x1="605" x2="724" y1="185.8281" y2="185.8281"/><text fill="#000000" font-family="sans-serif" font-size="13" lengthAdjust="spacingAndGlyphs" textLength="34" x="617" y="180.895">pop()</text><polygon fill="#A80036" points="245,210.9609,235,214.9609,245,218.9609,241,214.9609" style="stroke: #A80036; stroke-width: 1.0;"/><line style="stroke: #A80036; stroke-width: 1.0;" x1="239" x2="724" y1="214.9609" y2="214.9609"/><text fill="#000000" font-family="sans-serif" font-size="13" lengthAdjust="spacingAndGlyphs" textLength="90" x="251" y="210.0278">socket_send()</text></g>
<g transform="translate(0.000000,17.000000) scale(0.100000,-0.100000)"
fill="#000000" stroke="none">
<path d="M21 157 c-29 -35 -16 -97 20 -97 15 0 19 -5 15 -16 -3 -9 -6 -20 -6
-25 0 -5 -4 -9 -10 -9 -14 0 -12 27 3 33 6 3 2 6 -10 6 -30 1 -31 -35 -3 -44
28 -9 47 9 55 51 3 20 9 42 12 50 3 8 -1 14 -11 14 -9 0 -16 -8 -16 -19 0 -26
-15 -34 -30 -16 -13 16 -6 48 16 70 14 13 13 15 -4 15 -11 0 -25 -6 -31 -13z"/>
<path d="M80 150 c0 -13 5 -20 13 -17 6 2 12 10 12 17 0 7 -6 15 -12 18 -8 2
-13 -5 -13 -18z"/>
<path d="M347 164 c-13 -13 -7 -24 14 -24 11 0 19 5 17 12 -5 14 -22 21 -31
12z"/>
<path d="M103 85 c-9 -40 -8 -45 8 -45 13 0 19 9 21 33 2 24 7 31 21 29 10 -2
17 3 17 13 0 10 -9 15 -28 15 -26 0 -30 -5 -39 -45z"/>
<path d="M175 101 c-24 -48 -13 -59 64 -60 63 -1 69 1 79 25 15 31 15 64 1 64
-6 0 -8 -8 -5 -18 4 -10 -1 -27 -10 -38 -14 -18 -15 -17 -9 19 5 29 3 37 -9
37 -9 0 -18 -13 -22 -35 -3 -19 -10 -35 -14 -35 -4 0 -4 16 0 35 8 35 8 35
-26 35 -27 0 -36 -6 -49 -29z m47 -6 c-5 -28 -22 -44 -22 -21 0 21 11 46 20
46 4 0 5 -11 2 -25z"/>
<path d="M340 116 c0 -7 -3 -28 -6 -45 -6 -26 -3 -31 13 -31 10 0 25 6 32 12
11 10 13 10 7 1 -5 -9 3 -13 28 -13 25 0 36 4 36 15 0 8 -4 15 -10 15 -5 0
-10 -4 -10 -10 0 -5 -5 -10 -11 -10 -6 0 -2 12 9 28 36 51 36 52 -2 52 -25 0
-36 -4 -36 -15 0 -8 5 -15 10 -15 6 0 10 5 10 12 0 6 3 9 6 6 9 -10 -19 -46
-39 -52 -17 -4 -18 -1 -13 30 6 27 4 34 -9 34 -8 0 -15 -6 -15 -14z"/>
<path d="M472 118 c-7 -7 -12 -27 -12 -46 0 -30 2 -33 27 -30 17 2 32 12 39
27 7 13 18 28 26 33 10 8 9 8 -4 4 -12 -3 -18 0 -18 9 0 18 -41 20 -58 3z m29
-51 c-13 -13 -15 11 -4 40 7 16 8 15 11 -6 2 -13 -1 -28 -7 -34z"/>
</g>
</svg>