<?xml version="1.0" encoding="UTF-8" standalone="no"?><svg xmlns="http://www.w3.org/2000/svg" xmlns:xlink="http://www.w3.org/1999/xlink" contentScriptType="application/ecmascript" contentStyleType="text/css" height="485px" preserveAspectRatio="none" style="width:1094px;height:485px;" version="1.1" viewBox="0 0 1094 485" width="1094px" zoomAndPan="magnify"><defs><filter height="300%" id="fxt6ft7" width="300%" x="-1" y="-1"><feGaussianBlur result="blurOut" stdDeviation="2.0"/><feColorMatrix in="blurOut" result="blurOut2" type="matrix" values="0 0 0 0 0 0 0 0 0 0 0 0 0 0 0 0 0 0 .4 0"/><feOffset dx="4.0" dy="4.0" in="blurOut2" result="blurOut3"/><feBlend in="SourceGraphic" in2="blurOut3" mode="normal"/></filter></defs><g><line style="stroke: #A80036; stroke-width: 1.0; stroke-dasharray: 5.0,5.0;" x1="33" x2="33" y1="38.2969" y2="446.8906"/><line style="stroke: #A80036; stroke-width: 1.0; stroke-dasharray: 5.0,5.0;" x1="99" x2="99" y1="38.2969" y2="446.8906"/><line style="stroke: #A80036; stroke-width: 1.0; stroke-dasharray: 5.0,5.0;" x1="204" x2="204" y1="38.2969" y2="446.8906"/><line style="stroke: #A80036; stroke-width: 1.0; stroke-dasharray: 5.0,5.0;" x1="370" x2="370" y1="38.2969" y2="446.8906"/><line style="stroke: #A80036; stroke-width: 1.0; stroke-dasharray: 5.0,5.0;" x1="505" x2="505" y1="38.2969" y2="446.8906"/><line style="stroke: #A80036; stroke-width: 1.0; stroke-dasharray: 5.0,5.0;" x1="614" x2="614" y1="38.2969" y2="446.8906"/><line style="stroke: #A80036; stroke-width: 1.0; stroke-dasharray: 5.0,5.0;" x1="766" x2="766" y1="38.2969" y2="446.8906"/><line style="stroke: #A80036; stroke-width: 1.0; stroke-dasharray: 5.0,5.0;" x1="911" x2="911" y1="38.2969" y2="446.8906"/><line style="stroke: #A80036; stroke-width: 1.0; stroke-dasharray: 5.0,5.0;" x1="1035" x2="1035" y1="38.2969" y2="446.8906"/><rect fill="#FEFECE" filter="url(#fxt6ft7)" height="30.2969" style="stroke: #A80036; stroke-width: 1.5;" width="46" x="8" y="3"/><text fill="#000000" font-family="sans-serif" font-size="14" lengthAdjust="spacingAndGlyphs" textLength="32" x="15" y="22.9951">Main</text><rect fill="#FEFECE" filter="url(#fxt6ft7)" height="30.2969" style="stroke: #A80036; stroke-width: 1.5;" width="46" x="8" y="445.8906"/><text fill="#000000" font-family="sans-serif" font-size="14" lengthAdjust="spacingAndGlyphs" textLength="32" x="15" y="465.8857">Main</text><rect fill="#FEFECE" filter="url(#fxt6ft7)" height="30.2969" style="stroke: #A80036; stroke-width: 1.5;" width="58" x="68" y="3"/><text fill="#000000" font-family="sans-serif" font-size="14" lengthAdjust="spacingAndGlyphs" textLength="44" x="75" y="22.9951">Server</text><rect fill="#FEFECE" filter="url(#fxt6ft7)" height="30.2969" style="stroke: #A80036; stroke-width: 1.5;" width="58" x="68" y="445.8906"/><text fill="#000000" font-family="sans-serif" font-size="14" lengthAdjust="spacingAndGlyphs" textLength="44" x="75" y="465.8857">Server</text><rect fill="#FEFECE" filter="url(#fxt6ft7)" height="30.2969" style="stroke: #A80036; stroke-width: 1.5;" width="125" x="140" y="3"/><text fill="#000000" font-family="sans-serif" font-size="14" lengthAdjust="spacingAndGlyphs" textLength="111" x="147" y="22.9951">ThreadAcceptor</text><rect fill="#FEFECE" filter="url(#fxt6ft7)" height="30.2969" style="stroke: #A80036; stroke-width: 1.5;" width="125" x="140" y="445.8906"/><text fill="#000000" font-family="sans-serif" font-size="14" lengthAdjust="spacingAndGlyphs" textLength="111" x="147" y="465.8857">ThreadAcceptor</text><rect fill="#FEFECE" filter="url(#fxt6ft7)" height="30.2969" style="stroke: #A80036; stroke-width: 1.5;" width="179" x="279" y="3"/><text fill="#000000" font-family="sans-serif" font-size="14" lengthAdjust="spacingAndGlyphs" textLength="165" x="286" y="22.9951">ReceiveClientMessages</text><rect fill="#FEFECE" filter="url(#fxt6ft7)" height="30.2969" style="stroke: #A80036; stroke-width: 1.5;" width="179" x="279" y="445.8906"/><text fill="#000000" font-family="sans-serif" font-size="14" lengthAdjust="spacingAndGlyphs" textLength="165" x="286" y="465.8857">ReceiveClientMessages</text><rect fill="#FEFECE" filter="url(#fxt6ft7)" height="30.2969" style="stroke: #A80036; stroke-width: 1.5;" width="62" x="472" y="3"/><text fill="#000000" font-family="sans-serif" font-size="14" lengthAdjust="spacingAndGlyphs" textLength="48" x="479" y="22.9951">Socket</text><rect fill="#FEFECE" filter="url(#fxt6ft7)" height="30.2969" style="stroke: #A80036; stroke-width: 1.5;" width="62" x="472" y="445.8906"/><text fill="#000000" font-family="sans-serif" font-size="14" lengthAdjust="spacingAndGlyphs" textLength="48" x="479" y="465.8857">Socket</text><rect fill="#FEFECE" filter="url(#fxt6ft7)" height="30.2969" style="stroke: #A80036; stroke-width: 1.5;" width="129" x="548" y="3"/><text fill="#000000" font-family="sans-serif" font-size="14" lengthAdjust="spacingAndGlyphs" textLength="115" x="555" y="22.9951">ProtectedQueue</text><rect fill="#FEFECE" filter="url(#fxt6ft7)" height="30.2969" style="stroke: #A80036; stroke-width: 1.5;" width="129" x="548" y="445.8906"/><text fill="#000000" font-family="sans-serif" font-size="14" lengthAdjust="spacingAndGlyphs" textLength="115" x="555" y="465.8857">ProtectedQueue</text><rect fill="#FEFECE" filter="url(#fxt6ft7)" height="30.2969" style="stroke: #A80036; stroke-width: 1.5;" width="147" x="691" y="3"/><text fill="#000000" font-family="sans-serif" font-size="14" lengthAdjust="spacingAndGlyphs" textLength="133" x="698" y="22.9951">MessageProcessor</text><rect fill="#FEFECE" filter="url(#fxt6ft7)" height="30.2969" style="stroke: #A80036; stroke-width: 1.5;" width="147" x="691" y="445.8906"/><text fill="#000000" font-family="sans-serif" font-size="14" lengthAdjust="spacingAndGlyphs" textLength="133" x="698" y="465.8857">MessageProcessor</text><rect fill="#FEFECE" filter="url(#fxt6ft7)" height="30.2969" style="stroke: #A80036; stroke-width: 1.5;" width="115" x="852" y="3"/><text fill="#000000" font-family="sans-serif" font-size="14" lengthAdjust="spacingAndGlyphs" textLength="101" x="859" y="22.9951">GameManager</text><rect fill="#FEFECE" filter="url(#fxt6ft7)" height="30.2969" style="stroke: #A80036; stroke-width: 1.5;" width="115" x="852" y="445.8906"/><text fill="#000000" font-family="sans-serif" font-size="14" lengthAdjust="spacingAndGlyphs" textLength="101" x="859" y="465.8857">GameManager</text><rect fill="#FEFECE" filter="url(#fxt6ft7)" height="30.2969" style="stroke: #A80036; stroke-width: 1.5;" width="104" x="981" y="3"/><text fill="#000000" font-family="sans-serif" font-size="14" lengthAdjust="spacingAndGlyphs" textLength="90" x="988" y="22.9951">ThreadGame</text><rect fill="#FEFECE" filter="url(#fxt6ft7)" height="30.2969" style="stroke: #A80036; stroke-width: 1.5;" width="104" x="981" y="445.8906"/><text fill="#000000" font-family="sans-serif" font-size="14" lengthAdjust="spacingAndGlyphs" textLength="90" x="988" y="465.8857">ThreadGame</text><polygon fill="#A80036" points="87,65.2969,97,69.2969,87,73.2969,91,69.2969" style="stroke: #A80036; stroke-width: 1.0;"/><line style="stroke: #A80036; stroke-width: 1.0;" x1="33" x2="93" y1="69.2969" y2="69.2969"/><text fill="#000000" font-family="sans-serif" font-size="13" lengthAdjust="spacingAndGlyphs" textLength="40" x="40" y="64.3638">start()</text><polygon fill="#A80036" points="192.5,94.4297,202.5,98.4297,192.5,102.4297,196.5,98.4297" style="stroke: #A80036; stroke-width: 1.0;"/><line style="stroke: #A80036; stroke-width: 1.0;" x1="99" x2="198.5" y1="98.4297" y2="98.4297"/><text fill="#000000" font-family="sans-serif" font-size="13" lengthAdjust="spacingAndGlyphs" textLength="40" x="106" y="93.4966">start()</text><line style="stroke: #A80036; stroke-width: 1.0;" x1="204.5" x2="246.5" y1="127.6953" y2="127.6953"/><line style="stroke: #A80036; stroke-width: 1.0;" x1="246.5" x2="246.5" y1="127.6953" y2="140.6953"/><line style="stroke: #A80036; stroke-width: 1.0;" x1="205.5" x2="246.5" y1="140.6953" y2="140.6953"/><polygon fill="#A80036" points="215.5,136.6953,205.5,140.6953,215.5,144.6953,211.5,140.6953" style="stroke: #A80036; stroke-width: 1.0;"/><text fill="#000000" font-family="sans-serif" font-size="13" lengthAdjust="spacingAndGlyphs" textLength="125" x="211.5" y="122.6294">acceptConnection()</text><polygon fill="#A80036" points="493,165.6953,503,169.6953,493,173.6953,497,169.6953" style="stroke: #A80036; stroke-width: 1.0;"/><line style="stroke: #A80036; stroke-width: 1.0;" x1="370.5" x2="499" y1="169.6953" y2="169.6953"/><text fill="#000000" font-family="sans-serif" font-size="13" lengthAdjust="spacingAndGlyphs" textLength="105" x="377.5" y="164.7622">socket_receive()</text><polygon fill="#A80036" points="602.5,194.8281,612.5,198.8281,602.5,202.8281,606.5,198.8281" style="stroke: #A80036; stroke-width: 1.0;"/><line style="stroke: #A80036; stroke-width: 1.0;" x1="370.5" x2="608.5" y1="198.8281" y2="198.8281"/><text fill="#000000" font-family="sans-serif" font-size="13" lengthAdjust="spacingAndGlyphs" textLength="41" x="377.5" y="193.895">push()</text><polygon fill="#A80036" points="899.5,223.9609,909.5,227.9609,899.5,231.9609,903.5,227.9609" style="stroke: #A80036; stroke-width: 1.0;"/><line style="stroke: #A80036; stroke-width: 1.0;" x1="766.5" x2="905.5" y1="227.9609" y2="227.9609"/><text fill="#000000" font-family="sans-serif" font-size="13" lengthAdjust="spacingAndGlyphs" textLength="120" x="773.5" y="223.0278">receiveMessages()</text><polygon fill="#A80036" points="625.5,253.0938,615.5,257.0938,625.5,261.0938,621.5,257.0938" style="stroke: #A80036; stroke-width: 1.0;"/><line style="stroke: #A80036; stroke-width: 1.0;" x1="619.5" x2="910.5" y1="257.0938" y2="257.0938"/><text fill="#000000" font-family="sans-serif" font-size="13" lengthAdjust="spacingAndGlyphs" textLength="34" x="631.5" y="252.1606">pop()</text><line style="stroke: #A80036; stroke-width: 1.0;" x1="911.5" x2="953.5" y1="286.3594" y2="286.3594"/><line style="stroke: #A80036; stroke-width: 1.0;" x1="953.5" x2="953.5" y1="286.3594" y2="299.3594"/><line style="stroke: #A80036; stroke-width: 1.0;" x1="912.5" x2="953.5" y1="299.3594" y2="299.3594"/><polygon fill="#A80036" points="922.5,295.3594,912.5,299.3594,922.5,303.3594,918.5,299.3594" style="stroke: #A80036; stroke-width: 1.0;"/><text fill="#000000" font-family="sans-serif" font-size="13" lengthAdjust="spacingAndGlyphs" textLength="79" x="918.5" y="281.2935">startGame()</text><polygon fill="#A80036" points="625.5,324.3594,615.5,328.3594,625.5,332.3594,621.5,328.3594" style="stroke: #A80036; stroke-width: 1.0;"/><line style="stroke: #A80036; stroke-width: 1.0; stroke-dasharray: 2.0,2.0;" x1="619.5" x2="910.5" y1="328.3594" y2="328.3594"/><text fill="#000000" font-family="sans-serif" font-size="13" lengthAdjust="spacingAndGlyphs" textLength="25" x="631.5" y="323.4263">new</text><polygon fill="#A80036" points="1023,353.4922,1033,357.4922,1023,361.4922,1027,357.4922" style="stroke: #A80036; stroke-width: 1.0;"/><line style="stroke: #A80036; stroke-width: 1.0; stroke-dasharray: 2.0,2.0;" x1="911.5" x2="1029" y1="357.4922" y2="357.4922"/><text fill="#000000" font-family="sans-serif" font-size="13" lengthAdjust="spacingAndGlyphs" textLength="25" x="918.5" y="352.5591">new</text><line style="stroke: #A80036; stroke-width: 1.0;" x1="911.5" x2="953.5" y1="386.7578" y2="386.7578"/><line style="stroke: #A80036; stroke-width: 1.0;" x1="953.5" x2="953.5" y1="386.7578" y2="399.7578"/><line style="stroke: #A80036; stroke-width: 1.0;" x1="912.5" x2="953.5" y1="399.7578" y2="399.7578"/><polygon fill="#A80036" points="922.5,395.7578,912.5,399.7578,922.5,403.7578,918.5,399.7578" style="stroke: #A80036; stroke-width: 1.0;"/><text fill="#000000" font-family="sans-serif" font-size="13" lengthAdjust="spacingAndGlyphs" textLength="71" x="918.5" y="381.6919">joinGame()</text><polygon fill="#A80036" points="381.5,424.7578,371.5,428.7578,381.5,432.7578,377.5,428.7578" style="stroke: #A80036; stroke-width: 1.0;"/><line style="stroke: #A80036; stroke-width: 1.0;" x1="375.5" x2="910.5" y1="428.7578" y2="428.7578"/><text fill="#000000" font-family="sans-serif" font-size="13" lengthAdjust="spacingAndGlyphs" textLength="147" x="387.5" y="423.8247">assignToGameQueue()</text></g>
<g transform="translate(0.000000,17.000000) scale(0.100000,-0.100000)"
fill="#000000" stroke="none">
<path d="M21 157 c-29 -35 -16 -97 20 -97 15 0 19 -5 15 -16 -3 -9 -6 -20 -6
-25 0 -5 -4 -9 -10 -9 -14 0 -12 27 3 33 6 3 2 6 -10 6 -30 1 -31 -35 -3 -44
28 -9 47 9 55 51 3 20 9 42 12 50 3 8 -1 14 -11 14 -9 0 -16 -8 -16 -19 0 -26
-15 -34 -30 -16 -13 16 -6 48 16 70 14 13 13 15 -4 15 -11 0 -25 -6 -31 -13z"/>
<path d="M80 150 c0 -13 5 -20 13 -17 6 2 12 10 12 17 0 7 -6 15 -12 18 -8 2
-13 -5 -13 -18z"/>
<path d="M347 164 c-13 -13 -7 -24 14 -24 11 0 19 5 17 12 -5 14 -22 21 -31
12z"/>
<path d="M103 85 c-9 -40 -8 -45 8 -45 13 0 19 9 21 33 2 24 7 31 21 29 10 -2
17 3 17 13 0 10 -9 15 -28 15 -26 0 -30 -5 -39 -45z"/>
<path d="M175 101 c-24 -48 -13 -59 64 -60 63 -1 69 1 79 25 15 31 15 64 1 64
-6 0 -8 -8 -5 -18 4 -10 -1 -27 -10 -38 -14 -18 -15 -17 -9 19 5 29 3 37 -9
37 -9 0 -18 -13 -22 -35 -3 -19 -10 -35 -14 -35 -4 0 -4 16 0 35 8 35 8 35
-26 35 -27 0 -36 -6 -49 -29z m47 -6 c-5 -28 -22 -44 -22 -21 0 21 11 46 20
46 4 0 5 -11 2 -25z"/>
<path d="M340 116 c0 -7 -3 -28 -6 -45 -6 -26 -3 -31 13 -31 10 0 25 6 32 12
11 10 13 10 7 1 -5 -9 3 -13 28 -13 25 0 36 4 36 15 0 8 -4 15 -10 15 -5 0
-10 -4 -10 -10 0 -5 -5 -10 -11 -10 -6 0 -2 12 9 28 36 51 36 52 -2 52 -25 0
-36 -4 -36 -15 0 -8 5 -15 10 -15 6 0 10 5 10 12 0 6 3 9 6 6 9 -10 -19 -46
-39 -52 -17 -4 -18 -1 -13 30 6 27 4 34 -9 34 -8 0 -15 -6 -15 -14z"/>
<path d="M472 118 c-7 -7 -12 -27 -12 -46 0 -30 2 -33 27 -30 17 2 32 12 39
27 7 13 18 28 26 33 10 8 9 8 -4 4 -12 -3 -18 0 -18 9 0 18 -41 20 -58 3z m29
-51 c-13 -13 -15 11 -4 40 7 16 8 15 11 -6 2 -13 -1 -28 -7 -34z"/>
</g>
</svg>